<svg xmlns="http://www.w3.org/2000/svg" fill="none" viewBox="0 0 128 128">
    <path d="M64 8L16 32v32c0 35.3 29.8 64 48 72 18.2-8 48-36.7 48-72V32L64 8zm32 56c0 26.5-21.5 48-32 54.3C53.5 112 32 90.5 32 64V38.4L64 20.8l32 17.6V64z"/>
    <path d="M64 88c13.3 0 24-10.7 24-24S77.3 40 64 40s-24 10.7-24 24 10.7 24 24 24zm0-40c8.8 0 16 7.2 16 16s-7.2 16-16 16-16-7.2-16-16 7.2-16 16-16z"/>
    <style>
        path { fill: #4a90e2; }
        @media (prefers-color-scheme: dark) {
            path { fill: #FFF; }
        }
    </style>
</svg>
